<svg xmlns="http://www.w3.org/2000/svg" width="115" height="96" fill="none" xmlns:v="https://vecta.io/nano"><g fill-rule="evenodd"><path d="M32.107.002c9.48.072 15.527 2.445 22.263 7.696v.075C29.409 34.378 26.605 34.942 27.835 40.812c2.831 10.121 23.751 9.894 30.706 7.069 7.473-3.169 12.173-10.859 18.735-16.04 20.805 21.45 29.366 24.968 17.847 34.314L72.067 89.251c-4.083 4.105-8.632 6.421-14.263 6.727-12.202.565-17.956-9.713-25.029-16.165-8.899-9.514-18.793-17.928-27.026-28.157C-9.218 29.186 6.969.816 32.107.002z" fill="#4586FF"/><path d="M80.35.002c33.5-.347 44.048 39.173 23.839 57.14h-.037v-.038c-1.311-6.925-6.132-9.98-9.868-13.96-5.944-5.763-11.056-11.405-17.088-16.894-16.312 15.33-17.12 18.017-24.403 18.908-5.206 1.553-26.61-.763-19.766-9.016C60.003 8.293 61.925 1.567 80.35.002z" fill="#2d3547"/></g><defs><linearGradient id="A" x1="1.717" y1="21.794" x2="97.907" y2="85.171" gradientUnits="userSpaceOnUse"><stop stop-color="#4586ff"/><stop offset=".24" stop-color="#397eff"/><stop offset=".68" stop-color="#1b6aff"/><stop offset="1" stop-color="#0059ff"/></linearGradient></defs></svg>