<svg id="Calque_1" data-name="Calque 1" xmlns="http://www.w3.org/2000/svg" viewBox="0 0 421.71 48.33"><defs><style>.cls-1{fill:#4a5f62;}.cls-2{fill:#3979d4;}</style></defs><path class="cls-1" d="M5.42,44.84A25.65,25.65,0,0,1,3.55,35a25.73,25.73,0,0,1,1.87-9.81,22.6,22.6,0,0,1,5.08-7.67,23.15,23.15,0,0,1,7.63-4.9,24.94,24.94,0,0,1,9.42-1.78,20.44,20.44,0,0,1,17.7,9.26l-4.82,2.74a15,15,0,0,0-5.5-4.94,15.33,15.33,0,0,0-7.38-1.87A17.13,17.13,0,0,0,14.7,21.38Q9.57,26.69,9.57,35a20.29,20.29,0,0,0,2.36,9.8,17,17,0,0,0,6.46,6.76A17.71,17.71,0,0,0,27.55,54a15.12,15.12,0,0,0,7.36-1.88,15.15,15.15,0,0,0,5.52-4.92l4.89,2.67q-6.8,9.33-17.77,9.33a24.94,24.94,0,0,1-9.42-1.78,23.15,23.15,0,0,1-7.63-4.9A22.64,22.64,0,0,1,5.42,44.84Z" transform="translate(-3.55 -10.87)"/><path class="cls-2" d="M48.3,11.66h6.52L65.13,50.4,75.81,11.66h4.82L91.32,50.59l10.36-38.93h6.53L94.85,58.34H88.46L78.21,20.81,68,58.34H61.6Z" transform="translate(-3.55 -10.87)"/><path class="cls-2" d="M112.38,41.39a18.83,18.83,0,0,1,2.13-8.9,16.45,16.45,0,0,1,5.95-6.43,16.8,16.8,0,0,1,17.29.05,15.32,15.32,0,0,1,5.65,6.51,21.74,21.74,0,0,1,1.9,9.22v1.33H117.92a12.65,12.65,0,0,0,3.58,8.34A11.4,11.4,0,0,0,130,54.86a15,15,0,0,0,5.73-1.13,14.2,14.2,0,0,0,4.81-3.21l2.52,3.42a18.53,18.53,0,0,1-13.47,5.26,16.57,16.57,0,0,1-12.41-5Q112.39,49.29,112.38,41.39Zm5.47-2.15h22.22a12.33,12.33,0,0,0-.7-3.86,12.51,12.51,0,0,0-2-3.59,9.52,9.52,0,0,0-3.49-2.72,11.51,11.51,0,0,0-5-1,10.75,10.75,0,0,0-4.72,1,9.7,9.7,0,0,0-3.44,2.69,13.68,13.68,0,0,0-2.07,3.58A12.67,12.67,0,0,0,117.85,39.24Z" transform="translate(-3.55 -10.87)"/><path class="cls-2" d="M153.77,58.34V11.66H159v18a14.62,14.62,0,0,1,5.05-4.38,13.44,13.44,0,0,1,6.37-1.57,13.79,13.79,0,0,1,10.94,4.85q4.2,4.86,4.2,12.94t-4.2,12.92a13.84,13.84,0,0,1-10.94,4.8A13.39,13.39,0,0,1,164,57.6a14.84,14.84,0,0,1-5-4.25v5ZM159,49.21A10.86,10.86,0,0,0,163.24,53a12.29,12.29,0,0,0,5.92,1.53,9.64,9.64,0,0,0,7.92-3.65A14.49,14.49,0,0,0,180,41.48a14.62,14.62,0,0,0-2.94-9.43,9.6,9.6,0,0,0-7.92-3.68,12,12,0,0,0-5.9,1.59A11.37,11.37,0,0,0,159,33.84Z" transform="translate(-3.55 -10.87)"/><path class="cls-1" d="M191.12,53.8,193.75,50a14.41,14.41,0,0,0,4.82,3.43,14.83,14.83,0,0,0,6.32,1.4,9.69,9.69,0,0,0,5.94-1.6A5,5,0,0,0,213,49.07a3.68,3.68,0,0,0-1.15-2.75,7.14,7.14,0,0,0-3-1.66l-4.05-1.16-4.44-1.26a20.74,20.74,0,0,1-4.1-1.63,8,8,0,0,1-3-2.81A7.89,7.89,0,0,1,192,33.47a8.77,8.77,0,0,1,3.35-7q3.34-2.79,9.18-2.79a16.62,16.62,0,0,1,12.53,5l-2.43,3.61a11.27,11.27,0,0,0-4.23-3.08A14.41,14.41,0,0,0,204.55,28a8.79,8.79,0,0,0-5.45,1.56,4.74,4.74,0,0,0-2,3.92,3.29,3.29,0,0,0,1.13,2.54,7.1,7.1,0,0,0,3,1.55l4.06,1.14L209.67,40a20.35,20.35,0,0,1,4.12,1.64A8.06,8.06,0,0,1,218,48.94a9.17,9.17,0,0,1-3.48,7.36q-3.47,2.89-9.77,2.9Q196.25,59.2,191.12,53.8Z" transform="translate(-3.55 -10.87)"/><path class="cls-1" d="M226.58,50.36a19.63,19.63,0,0,1-2-9,19.48,19.48,0,0,1,2-8.93,15.78,15.78,0,0,1,5.86-6.4,17.65,17.65,0,0,1,17.74,0,15.66,15.66,0,0,1,5.84,6.4,19.6,19.6,0,0,1,2,8.93,19.75,19.75,0,0,1-2,9,15.61,15.61,0,0,1-5.84,6.43,17.53,17.53,0,0,1-17.74,0A15.73,15.73,0,0,1,226.58,50.36Zm3.52-9a14.51,14.51,0,0,0,3,9.29,9.86,9.86,0,0,0,8.2,3.82,10.2,10.2,0,0,0,6.07-1.85,11.18,11.18,0,0,0,3.84-4.78,17.06,17.06,0,0,0,0-12.92,11.27,11.27,0,0,0-3.84-4.75,10.9,10.9,0,0,0-12.15,0A11.2,11.2,0,0,0,231.36,35,16.06,16.06,0,0,0,230.1,41.41Z" transform="translate(-3.55 -10.87)"/><path class="cls-1" d="M266.57,58.34V11.66h5.23V58.34Z" transform="translate(-3.55 -10.87)"/><path class="cls-1" d="M282.29,48.4V24.54h5.23V46.82q0,4.24,2,6a8.3,8.3,0,0,0,5.67,1.73,11.81,11.81,0,0,0,5.67-1.47,12.34,12.34,0,0,0,4.28-3.63V24.54h5.23v33.8h-5.23V53.63a17.63,17.63,0,0,1-5.3,4,14.72,14.72,0,0,1-6.73,1.6Q282.29,59.2,282.29,48.4Z" transform="translate(-3.55 -10.87)"/><path class="cls-1" d="M316.16,29.09V24.54h5.71V15.21h5.23v9.33h7v4.55h-7V50.16a5.29,5.29,0,0,0,.85,3.17,2.89,2.89,0,0,0,2.5,1.19A4.49,4.49,0,0,0,334,53l1.54,4a8.67,8.67,0,0,1-6.23,2.17,7.22,7.22,0,0,1-5.59-2.07,8.41,8.41,0,0,1-1.89-5.88V29.09Z" transform="translate(-3.55 -10.87)"/><path class="cls-1" d="M341.54,18.7a3.54,3.54,0,0,1,0-5,3.54,3.54,0,0,1,5,0,3.54,3.54,0,0,1-5,5Zm-.12,39.64V24.54h5.23v33.8Z" transform="translate(-3.55 -10.87)"/><path class="cls-1" d="M357.18,50.36a19.63,19.63,0,0,1-2-9,19.48,19.48,0,0,1,2-8.93,15.78,15.78,0,0,1,5.86-6.4,17.65,17.65,0,0,1,17.74,0,15.66,15.66,0,0,1,5.84,6.4,19.6,19.6,0,0,1,2,8.93,19.75,19.75,0,0,1-2,9,15.61,15.61,0,0,1-5.84,6.43,17.53,17.53,0,0,1-17.74,0A15.73,15.73,0,0,1,357.18,50.36Zm3.52-9a14.51,14.51,0,0,0,3,9.29,9.85,9.85,0,0,0,8.2,3.82A10.2,10.2,0,0,0,378,52.67a11.18,11.18,0,0,0,3.84-4.78,17.06,17.06,0,0,0,0-12.92A11.27,11.27,0,0,0,378,30.22a10.92,10.92,0,0,0-12.16,0A11.25,11.25,0,0,0,362,35,16.06,16.06,0,0,0,360.7,41.41Z" transform="translate(-3.55 -10.87)"/><path class="cls-1" d="M397.17,58.34V24.54h5.23v4.89a16.83,16.83,0,0,1,5.26-4.05,14.78,14.78,0,0,1,6.87-1.69q10.74,0,10.73,10.93V58.34H420V36.23q0-4.27-2-6.07a8.14,8.14,0,0,0-5.64-1.79,11.26,11.26,0,0,0-5.65,1.54,13.68,13.68,0,0,0-4.36,3.72V58.34Z" transform="translate(-3.55 -10.87)"/></svg>